<svg width="175" height="24" viewBox="0 0 175 24" fill="none" xmlns="http://www.w3.org/2000/svg">
<path fill-rule="evenodd" clip-rule="evenodd" d="M3.53035 0.396521C3.71938 0.146762 4.01451 0 4.32773 0H17.6387C17.9519 0 18.247 0.146762 18.436 0.396521L21.7577 4.78547C21.8885 4.95452 21.9664 5.16664 21.9664 5.39695V20.7863C21.9664 21.6375 21.6251 22.452 21.0205 23.0511C20.4162 23.6499 19.5986 23.9847 18.7479 23.9847H3.21849C2.3678 23.9847 1.55015 23.6499 0.945884 23.0511C0.341312 22.452 0 21.6375 0 20.7863V5.39695V5.39694C0 5.16662 0.0778676 4.95448 0.208713 4.78542L3.53035 0.396521ZM17.1414 2L18.9554 4.39694H3.01094L4.82501 2H17.1414ZM2 20.7863V6.39694H19.9664V20.7863C19.9664 21.1012 19.8402 21.405 19.6127 21.6305C19.3849 21.8563 19.074 21.9847 18.7479 21.9847H3.21849C2.89242 21.9847 2.5815 21.8563 2.35368 21.6305C2.12615 21.405 2 21.1012 2 20.7863ZM7.5462 9.79388C7.5462 9.2416 7.09849 8.79388 6.5462 8.79388C5.99392 8.79388 5.5462 9.2416 5.5462 9.79388C5.5462 11.2282 6.12125 12.6019 7.14187 13.6133C8.16218 14.6244 9.54411 15.1908 10.9832 15.1908C12.4222 15.1908 13.8042 14.6244 14.8245 13.6133C15.8451 12.6019 16.4202 11.2282 16.4202 9.79388C16.4202 9.2416 15.9724 8.79388 15.4202 8.79388C14.8679 8.79388 14.4202 9.2416 14.4202 9.79388C14.4202 10.6919 14.0603 11.5549 13.4167 12.1927C12.7728 12.8308 11.8976 13.1908 10.9832 13.1908C10.0687 13.1908 9.19353 12.8308 8.54966 12.1927C7.90609 11.5549 7.5462 10.6919 7.5462 9.79388Z" fill="#E83F5B"/>
<path d="M50.1484 17.1348C49.6667 17.8249 48.9928 18.3424 48.127 18.6875C47.2676 19.026 46.265 19.1953 45.1191 19.1953C43.9603 19.1953 42.9316 18.9251 42.0332 18.3848C41.1348 17.8379 40.4382 17.0632 39.9434 16.0605C39.4551 15.0579 39.2044 13.8958 39.1914 12.5742V11.334C39.1914 9.19206 39.6895 7.5319 40.6855 6.35352C41.6882 5.17513 43.0944 4.58594 44.9043 4.58594C46.3887 4.58594 47.5833 4.9668 48.4883 5.72852C49.3932 6.48372 49.9466 7.55794 50.1484 8.95117H48.2734C47.9219 7.06966 46.8021 6.12891 44.9141 6.12891C43.6576 6.12891 42.7038 6.57161 42.0527 7.45703C41.4082 8.33594 41.0827 9.61198 41.0762 11.2852V12.4473C41.0762 14.0423 41.4408 15.3118 42.1699 16.2559C42.8991 17.1934 43.8854 17.6621 45.1289 17.6621C45.832 17.6621 46.4473 17.584 46.9746 17.4277C47.502 17.2715 47.9382 17.0078 48.2832 16.6367V13.4434H44.9922V11.9199H50.1484V17.1348Z" fill="#3D3D4D"/>
<path d="M52.5215 13.6191C52.5215 12.584 52.7233 11.653 53.127 10.8262C53.5371 9.99935 54.1035 9.36133 54.8262 8.91211C55.5553 8.46289 56.3854 8.23828 57.3164 8.23828C58.7552 8.23828 59.9173 8.73633 60.8027 9.73242C61.6947 10.7285 62.1406 12.0534 62.1406 13.707V13.834C62.1406 14.8626 61.9421 15.7871 61.5449 16.6074C61.1543 17.4212 60.5911 18.056 59.8555 18.5117C59.1263 18.9674 58.2865 19.1953 57.3359 19.1953C55.9036 19.1953 54.7415 18.6973 53.8496 17.7012C52.9642 16.7051 52.5215 15.3867 52.5215 13.7461V13.6191ZM54.3379 13.834C54.3379 15.0059 54.6081 15.9466 55.1484 16.6562C55.6953 17.3659 56.4245 17.7207 57.3359 17.7207C58.2539 17.7207 58.9831 17.3626 59.5234 16.6465C60.0638 15.9238 60.334 14.9147 60.334 13.6191C60.334 12.4603 60.0573 11.5228 59.5039 10.8066C58.957 10.084 58.2279 9.72266 57.3164 9.72266C56.4245 9.72266 55.7051 10.0775 55.1582 10.7871C54.6113 11.4967 54.3379 12.5124 54.3379 13.834Z" fill="#3D3D4D"/>
<path d="M68.1367 4.78125L71.7891 15.0938L75.4219 4.78125H79.2695V19H76.3301V15.1133L76.623 8.4043L72.7852 19H70.7734L66.9453 8.41406L67.2383 15.1133V19H64.3086V4.78125H68.1367Z" fill="#3D3D4D"/>
<path d="M87.7656 19C87.6354 18.7461 87.541 18.4303 87.4824 18.0527C86.7988 18.8145 85.9102 19.1953 84.8164 19.1953C83.7812 19.1953 82.9219 18.8958 82.2383 18.2969C81.5612 17.6979 81.2227 16.9427 81.2227 16.0312C81.2227 14.9115 81.6361 14.0521 82.4629 13.4531C83.2962 12.8542 84.4974 12.5514 86.0664 12.5449H87.3652V11.9395C87.3652 11.4512 87.2383 11.0605 86.9844 10.7676C86.737 10.4746 86.3431 10.3281 85.8027 10.3281C85.3275 10.3281 84.9531 10.4421 84.6797 10.6699C84.4128 10.8978 84.2793 11.2103 84.2793 11.6074H81.457C81.457 10.9954 81.6458 10.429 82.0234 9.9082C82.401 9.38737 82.9349 8.98047 83.625 8.6875C84.3151 8.38802 85.0898 8.23828 85.9492 8.23828C87.2513 8.23828 88.2832 8.56706 89.0449 9.22461C89.8132 9.87565 90.1973 10.7936 90.1973 11.9785V16.5586C90.2038 17.5612 90.3438 18.3197 90.6172 18.834V19H87.7656ZM85.4316 17.0371C85.8483 17.0371 86.2324 16.946 86.584 16.7637C86.9355 16.5749 87.196 16.3242 87.3652 16.0117V14.1953H86.3105C84.8978 14.1953 84.1458 14.6836 84.0547 15.6602L84.0449 15.8262C84.0449 16.1777 84.1686 16.4674 84.416 16.6953C84.6634 16.9232 85.002 17.0371 85.4316 17.0371Z" fill="#3D3D4D"/>
<path d="M98.3027 11.0801C97.9186 11.028 97.5801 11.002 97.2871 11.002C96.2194 11.002 95.5195 11.3633 95.1875 12.0859V19H92.3652V8.43359H95.0312L95.1094 9.69336C95.6758 8.72331 96.4603 8.23828 97.4629 8.23828C97.7754 8.23828 98.0684 8.2806 98.3418 8.36523L98.3027 11.0801Z" fill="#3D3D4D"/>
<path d="M103.508 14.7617L102.492 15.7773V19H99.6699V4H102.492V12.3105L103.039 11.6074L105.744 8.43359H109.133L105.314 12.8379L109.465 19H106.223L103.508 14.7617Z" fill="#3D3D4D"/>
<path d="M115.021 19.1953C113.472 19.1953 112.209 18.7201 111.232 17.7695C110.262 16.819 109.777 15.5527 109.777 13.9707V13.6973C109.777 12.6361 109.982 11.6888 110.393 10.8555C110.803 10.0156 111.382 9.37109 112.131 8.92188C112.886 8.46615 113.745 8.23828 114.709 8.23828C116.154 8.23828 117.29 8.69401 118.117 9.60547C118.951 10.5169 119.367 11.8092 119.367 13.4824V14.6348H112.639C112.73 15.3249 113.003 15.8783 113.459 16.2949C113.921 16.7116 114.504 16.9199 115.207 16.9199C116.294 16.9199 117.144 16.526 117.756 15.7383L119.143 17.291C118.719 17.89 118.146 18.3587 117.424 18.6973C116.701 19.0293 115.9 19.1953 115.021 19.1953ZM114.699 10.5234C114.139 10.5234 113.684 10.7122 113.332 11.0898C112.987 11.4674 112.766 12.0078 112.668 12.7109H116.594V12.4863C116.581 11.8613 116.411 11.3796 116.086 11.041C115.76 10.696 115.298 10.5234 114.699 10.5234Z" fill="#3D3D4D"/>
<path d="M124.357 5.83594V8.43359H126.164V10.5039H124.357V15.7773C124.357 16.168 124.432 16.4479 124.582 16.6172C124.732 16.7865 125.018 16.8711 125.441 16.8711C125.754 16.8711 126.031 16.8483 126.271 16.8027V18.9414C125.718 19.1107 125.148 19.1953 124.562 19.1953C122.583 19.1953 121.574 18.196 121.535 16.1973V10.5039H119.992V8.43359H121.535V5.83594H124.357Z" fill="#3D3D4D"/>
<path d="M137.248 13.8145C137.248 15.4421 136.877 16.7474 136.135 17.7305C135.399 18.707 134.403 19.1953 133.146 19.1953C132.079 19.1953 131.216 18.8242 130.559 18.082V23.0625H127.736V8.43359H130.354L130.451 9.46875C131.135 8.64844 132.027 8.23828 133.127 8.23828C134.429 8.23828 135.441 8.72005 136.164 9.68359C136.887 10.6471 137.248 11.9753 137.248 13.668V13.8145ZM134.426 13.6094C134.426 12.6263 134.25 11.8678 133.898 11.334C133.553 10.8001 133.049 10.5332 132.385 10.5332C131.499 10.5332 130.891 10.8717 130.559 11.5488V15.875C130.904 16.5716 131.519 16.9199 132.404 16.9199C133.752 16.9199 134.426 15.8164 134.426 13.6094Z" fill="#3D3D4D"/>
<path d="M141.984 19H139.152V4H141.984V19Z" fill="#3D3D4D"/>
<path d="M150.441 19C150.311 18.7461 150.217 18.4303 150.158 18.0527C149.475 18.8145 148.586 19.1953 147.492 19.1953C146.457 19.1953 145.598 18.8958 144.914 18.2969C144.237 17.6979 143.898 16.9427 143.898 16.0312C143.898 14.9115 144.312 14.0521 145.139 13.4531C145.972 12.8542 147.173 12.5514 148.742 12.5449H150.041V11.9395C150.041 11.4512 149.914 11.0605 149.66 10.7676C149.413 10.4746 149.019 10.3281 148.479 10.3281C148.003 10.3281 147.629 10.4421 147.355 10.6699C147.089 10.8978 146.955 11.2103 146.955 11.6074H144.133C144.133 10.9954 144.322 10.429 144.699 9.9082C145.077 9.38737 145.611 8.98047 146.301 8.6875C146.991 8.38802 147.766 8.23828 148.625 8.23828C149.927 8.23828 150.959 8.56706 151.721 9.22461C152.489 9.87565 152.873 10.7936 152.873 11.9785V16.5586C152.88 17.5612 153.02 18.3197 153.293 18.834V19H150.441ZM148.107 17.0371C148.524 17.0371 148.908 16.946 149.26 16.7637C149.611 16.5749 149.872 16.3242 150.041 16.0117V14.1953H148.986C147.574 14.1953 146.822 14.6836 146.73 15.6602L146.721 15.8262C146.721 16.1777 146.844 16.4674 147.092 16.6953C147.339 16.9232 147.678 17.0371 148.107 17.0371Z" fill="#3D3D4D"/>
<path d="M159.436 16.9199C159.956 16.9199 160.38 16.7767 160.705 16.4902C161.031 16.2038 161.2 15.8229 161.213 15.3477H163.859C163.853 16.0638 163.658 16.7214 163.273 17.3203C162.889 17.9128 162.362 18.375 161.691 18.707C161.027 19.0326 160.292 19.1953 159.484 19.1953C157.974 19.1953 156.783 18.7168 155.91 17.7598C155.038 16.7962 154.602 15.4681 154.602 13.7754V13.5898C154.602 11.9622 155.035 10.6634 155.9 9.69336C156.766 8.72331 157.954 8.23828 159.465 8.23828C160.786 8.23828 161.844 8.61589 162.639 9.37109C163.439 10.1198 163.846 11.1191 163.859 12.3691H161.213C161.2 11.8223 161.031 11.3796 160.705 11.041C160.38 10.696 159.95 10.5234 159.416 10.5234C158.758 10.5234 158.26 10.7643 157.922 11.2461C157.59 11.7214 157.424 12.4961 157.424 13.5703V13.8633C157.424 14.9505 157.59 15.7318 157.922 16.207C158.254 16.6823 158.758 16.9199 159.436 16.9199Z" fill="#3D3D4D"/>
<path d="M170.334 19.1953C168.785 19.1953 167.521 18.7201 166.545 17.7695C165.575 16.819 165.09 15.5527 165.09 13.9707V13.6973C165.09 12.6361 165.295 11.6888 165.705 10.8555C166.115 10.0156 166.695 9.37109 167.443 8.92188C168.199 8.46615 169.058 8.23828 170.021 8.23828C171.467 8.23828 172.603 8.69401 173.43 9.60547C174.263 10.5169 174.68 11.8092 174.68 13.4824V14.6348H167.951C168.042 15.3249 168.316 15.8783 168.771 16.2949C169.234 16.7116 169.816 16.9199 170.52 16.9199C171.607 16.9199 172.456 16.526 173.068 15.7383L174.455 17.291C174.032 17.89 173.459 18.3587 172.736 18.6973C172.014 19.0293 171.213 19.1953 170.334 19.1953ZM170.012 10.5234C169.452 10.5234 168.996 10.7122 168.645 11.0898C168.299 11.4674 168.078 12.0078 167.98 12.7109H171.906V12.4863C171.893 11.8613 171.724 11.3796 171.398 11.041C171.073 10.696 170.611 10.5234 170.012 10.5234Z" fill="#3D3D4D"/>
</svg>
